<svg width="53" height="69" viewBox="0 0 53 69" fill="none" xmlns="http://www.w3.org/2000/svg">
<path d="M27.9062 39.5156H10.375L10.2812 29.2969H24.7656C27.3281 29.2969 29.4062 28.9844 31 28.3594C32.625 27.7344 33.8125 26.8281 34.5625 25.6406C35.3125 24.4219 35.6875 22.9219 35.6875 21.1406C35.6875 19.1094 35.3125 17.4688 34.5625 16.2188C33.8125 14.9688 32.625 14.0625 31 13.5C29.4062 12.9062 27.3438 12.6094 24.8125 12.6094H15.9062V69H0.625V0.75H24.8125C28.9062 0.75 32.5625 1.125 35.7812 1.875C39 2.625 41.7344 3.78125 43.9844 5.34375C46.2656 6.90625 48 8.85938 49.1875 11.2031C50.375 13.5469 50.9688 16.3125 50.9688 19.5C50.9688 22.2812 50.3438 24.875 49.0938 27.2812C47.875 29.6875 45.9062 31.6406 43.1875 33.1406C40.4688 34.6406 36.8281 35.4531 32.2656 35.5781L27.9062 39.5156ZM27.2969 69H6.48438L12.0156 57.1875H27.2969C29.6406 57.1875 31.5469 56.8125 33.0156 56.0625C34.4844 55.3125 35.5625 54.2969 36.25 53.0156C36.9375 51.7344 37.2812 50.2969 37.2812 48.7031C37.2812 46.8281 36.9531 45.2031 36.2969 43.8281C35.6719 42.4531 34.6719 41.3906 33.2969 40.6406C31.9531 39.8906 30.1562 39.5156 27.9062 39.5156H14.2188L14.3125 29.2969H31.0469L34.6094 33.3281C38.9531 33.2344 42.4219 33.9375 45.0156 35.4375C47.6406 36.9062 49.5312 38.8438 50.6875 41.25C51.8438 43.6562 52.4219 46.2031 52.4219 48.8906C52.4219 53.3281 51.4688 57.0469 49.5625 60.0469C47.6562 63.0156 44.8281 65.25 41.0781 66.75C37.3594 68.25 32.7656 69 27.2969 69Z" fill="#FF1C0B"/>
</svg>
