<svg width="493" height="125" viewBox="0 0 493 125" fill="none" xmlns="http://www.w3.org/2000/svg">
<path d="M37.5591 68.1975L20.0838 69.5978L19.1742 59.4192L33.6122 58.2623C36.1666 58.0576 38.2131 57.5801 39.7518 56.8298C41.3217 56.077 42.433 55.0788 43.0858 53.8352C43.736 52.5604 43.99 51.0352 43.8477 49.2597C43.6855 47.2349 43.1806 45.6295 42.3332 44.4434C41.4857 43.2573 40.2296 42.4488 38.5649 42.0179C36.9288 41.5533 34.8492 41.4222 32.326 41.6243L23.4482 42.3357L27.9525 98.5462L12.7201 99.7668L7.26853 31.7349L31.3787 29.8029C35.4594 29.4759 39.1339 29.5576 42.4023 30.0481C45.6707 30.5386 48.4887 31.4728 50.8563 32.8506C53.2551 34.2258 55.1399 36.0342 56.5108 38.2756C57.8817 40.517 58.6945 43.2264 58.9491 46.4037C59.1713 49.176 58.7554 51.8114 57.7016 54.3098C56.679 56.8057 54.8725 58.9099 52.2823 60.6223C49.692 62.3346 46.1279 63.4353 41.59 63.9244L37.5591 68.1975ZM39.3068 97.6363L18.5608 99.2988L23.1308 87.0822L38.3632 85.8616C40.6995 85.6744 42.5697 85.1483 43.9738 84.2834C45.378 83.4185 46.3715 82.32 46.9545 80.9879C47.5375 79.6558 47.7653 78.1955 47.638 76.6068C47.4882 74.7378 47.0313 73.1442 46.2674 71.826C45.5345 70.5053 44.4529 69.5261 43.0223 68.8883C41.623 68.2481 39.8019 68.0178 37.5591 68.1975L23.9153 69.2908L23.1925 59.0972L39.8734 57.7605L43.7465 61.4944C48.0689 61.0539 51.5828 61.4777 54.288 62.7658C57.022 64.0202 59.0613 65.8004 60.4061 68.1066C61.7508 70.4129 62.5305 72.9054 62.7452 75.5843C63.0997 80.0076 62.4466 83.7906 60.7861 86.9333C59.1231 90.0449 56.4825 92.498 52.8643 94.2927C49.2772 96.085 44.758 97.1995 39.3068 97.6363Z" fill="#FF1C0B"/>
<path d="M134.183 56.0008L134.345 59.0433C134.622 64.2234 134.153 68.9114 132.938 73.1073C131.754 77.3015 129.929 80.9198 127.463 83.9621C125.028 87.0027 122.058 89.3991 118.553 91.1513C115.078 92.8707 111.171 93.8463 106.833 94.0783C102.496 94.3103 98.4919 93.7578 94.8215 92.4207C91.1494 91.0523 87.9096 88.988 85.1019 86.2278C82.3254 83.4659 80.1093 80.0638 78.4535 76.0215C76.7978 71.9791 75.8314 67.3679 75.5543 62.1878L75.3916 59.1453C75.1145 53.9652 75.5835 49.2772 76.7987 45.0813C78.0121 40.8542 79.8363 37.2204 82.2711 34.1797C84.7371 31.1374 87.7236 28.7558 91.2304 27.0348C94.7356 25.2825 98.6569 24.2904 102.994 24.0584C107.332 23.8264 111.337 24.3946 115.009 25.7629C118.679 27.1001 121.887 29.1504 124.632 31.914C127.409 34.6759 129.626 38.0936 131.283 42.1671C132.939 46.2095 133.905 50.8207 134.183 56.0008ZM118.945 59.867L118.778 56.7309C118.592 53.2671 118.117 50.2256 117.351 47.6065C116.583 44.9563 115.558 42.7579 114.275 41.0114C112.993 39.2649 111.454 37.9859 109.658 37.1744C107.86 36.3317 105.853 35.9696 103.638 36.0881C101.329 36.2116 99.341 36.7874 97.6748 37.8153C96.0069 38.8121 94.6284 40.2471 93.5394 42.1205C92.4816 43.9921 91.7124 46.2865 91.2319 49.0035C90.7808 51.6877 90.648 54.7617 90.8332 58.2255L91.001 61.3616C91.1846 64.7942 91.6446 67.8365 92.381 70.4885C93.147 73.1075 94.1721 75.3059 95.4564 77.0836C96.7407 78.8613 98.266 80.1723 100.032 81.0167C101.83 81.8594 103.883 82.219 106.193 82.0955C108.408 81.977 110.349 81.4037 112.015 80.3758C113.713 79.3462 115.105 77.8791 116.192 75.9745C117.28 74.07 118.049 71.7756 118.5 69.0915C118.981 66.3744 119.129 63.2996 118.945 59.867Z" fill="#FF1C0B"/>
<path d="M206.862 53.9127L206.941 56.9586C207.075 62.1443 206.478 66.8177 205.148 70.9786C203.849 75.1387 201.925 78.7054 199.377 81.6788C196.859 84.6514 193.824 86.9653 190.272 88.6206C186.751 90.2437 182.819 91.1117 178.477 91.2244C174.134 91.3371 170.147 90.6748 166.515 89.2373C162.882 87.7686 159.7 85.6161 156.969 82.7797C154.269 79.9426 152.148 76.4809 150.604 72.3945C149.059 68.3082 148.22 63.6722 148.085 58.4865L148.006 55.4406C147.872 50.2549 148.469 45.5815 149.799 41.4206C151.129 37.2284 153.052 33.6461 155.569 30.6735C158.118 27.7001 161.169 25.4014 164.722 23.7774C168.274 22.1222 172.221 21.2382 176.563 21.1255C180.905 21.0127 184.893 21.6907 188.526 23.1594C192.158 24.5969 195.309 26.7346 197.977 29.5726C200.676 32.4097 202.799 35.8871 204.344 40.0046C205.888 44.0909 206.727 48.727 206.862 53.9127ZM191.524 57.3588L191.442 54.2192C191.352 50.7516 190.961 47.6983 190.267 45.0591C189.572 42.3888 188.608 40.163 187.374 38.382C186.14 36.6009 184.636 35.2801 182.863 34.4196C181.09 33.5278 179.094 33.1107 176.876 33.1683C174.564 33.2283 172.561 33.7492 170.867 34.731C169.173 35.6815 167.755 37.0782 166.615 38.9209C165.506 40.7628 164.674 43.0351 164.119 45.7379C163.595 48.4087 163.378 51.4779 163.468 54.9455L163.549 58.085C163.638 61.5214 164.014 64.5751 164.678 67.2463C165.372 69.8855 166.336 72.1112 167.571 73.9235C168.806 75.7358 170.294 77.0882 172.037 77.9808C173.811 78.8726 175.853 79.2885 178.165 79.2285C180.383 79.1709 182.339 78.6512 184.033 77.6694C185.758 76.6868 187.19 75.2585 188.329 73.3846C189.469 71.5106 190.301 69.2383 190.825 66.5675C191.38 63.8647 191.613 60.7951 191.524 57.3588Z" fill="#FF1C0B"/>
<path d="M267.154 77.5621L267.168 89.3746L232.715 89.4141L232.701 77.6016L267.154 77.5621ZM237.84 21.1582L237.918 89.4081L222.636 89.4256L222.558 21.1757L237.84 21.1582Z" fill="#FF1C0B"/>
<path d="M297.128 21.6227L295.696 89.8577L280.418 89.5369L281.85 21.302L297.128 21.6227ZM323.378 50.9615L323.13 62.7714L292.012 62.118L292.259 50.3081L323.378 50.9615ZM326.981 22.2495L326.732 34.1063L292.615 33.39L292.864 21.5332L326.981 22.2495Z" fill="#FF1C0B"/>
<path d="M383.182 81.0456L382.672 92.8471L348.251 91.3616L348.761 79.5601L383.182 81.0456ZM356.392 23.3994L353.45 91.586L338.183 90.9271L341.125 22.7406L356.392 23.3994Z" fill="#FF1C0B"/>
<path d="M416.318 26.5287L412.179 94.6531L396.973 93.7291L401.112 25.6048L416.318 26.5287Z" fill="#FF1C0B"/>
<path d="M448.04 28.7145L458.144 52.8487L471.963 30.6315L489.345 32.0244L467.297 64.2099L484.407 100.098L466.885 98.6934L456.441 74.1087L442.261 96.7202L424.693 95.3124L447.346 62.6111L430.658 27.3217L448.04 28.7145Z" fill="#FF1C0B"/>
</svg>
